<?xml version="1.0" standalone="no"?>
<!DOCTYPE svg PUBLIC "-//W3C//DTD SVG 20010904//EN"
 "http://www.w3.org/TR/2001/REC-SVG-20010904/DTD/svg10.dtd">
<svg version="1.0" xmlns="http://www.w3.org/2000/svg"
 width="336.000000pt" height="336.000000pt" viewBox="0 0 336.000000 336.000000"
 preserveAspectRatio="xMidYMid meet">
<metadata>
Created by potrace 1.11, written by Peter Selinger 2001-2013
</metadata>
<g transform="translate(0.000000,336.000000) scale(0.100000,-0.100000)"
fill="#000000" stroke="none">
<path d="M2015 3329 c-12 -23 -16 -53 -13 -125 3 -81 1 -94 -13 -94 -9 0 -24
-9 -33 -19 -14 -16 -23 -18 -49 -10 -50 14 -189 11 -210 -5 -16 -12 -24 -12
-52 0 -55 23 -80 18 -113 -22 -26 -31 -35 -35 -68 -34 -61 3 -72 1 -88 -15
-13 -13 -27 -12 -123 11 -59 14 -144 28 -188 31 -128 9 -130 -6 -28 -210 l43
-88 -29 -37 c-16 -20 -33 -52 -38 -70 -6 -25 -23 -43 -63 -71 -60 -41 -71 -68
-41 -95 19 -17 18 -19 -32 -84 -27 -37 -66 -101 -84 -142 -19 -41 -57 -122
-84 -180 -63 -135 -96 -253 -109 -390 -19 -181 10 -377 78 -538 25 -60 26 -69
12 -65 -10 3 -33 20 -51 39 -18 19 -37 34 -43 34 -6 0 -25 -14 -43 -32 l-33
-31 -72 15 c-40 9 -76 14 -81 11 -4 -2 -7 -15 -7 -28 0 -63 232 -205 452 -276
91 -29 110 -39 163 -89 65 -60 176 -136 249 -172 l45 -22 -29 -55 c-21 -39
-30 -68 -30 -102 0 -34 -7 -58 -24 -84 -19 -28 -23 -44 -19 -77 10 -84 22
-113 68 -158 l45 -44 238 -4 c271 -5 276 -4 352 73 36 37 44 51 48 93 2 27 -1
66 -8 86 -6 20 -13 71 -13 111 -2 63 1 75 14 75 9 0 51 9 94 20 67 17 81 18
94 6 37 -32 126 -67 198 -78 43 -6 206 -12 365 -12 276 -1 287 0 315 20 26 19
28 27 30 92 2 66 0 74 -30 114 -25 32 -42 44 -68 49 -42 6 -250 152 -266 185
-9 19 -4 31 32 83 201 288 257 661 151 994 l-23 75 36 6 c44 7 88 49 97 94 4
22 -2 56 -21 111 l-28 80 18 48 c39 99 14 211 -53 243 -17 8 -35 24 -38 35 -9
28 -41 61 -73 74 -26 11 -26 14 -26 99 0 116 -27 175 -98 212 -26 14 -54 35
-62 47 -17 24 -137 68 -161 59 -8 -3 -31 3 -52 14 -20 11 -46 20 -58 20 -17 0
-28 17 -60 96 -34 85 -43 98 -76 115 -20 10 -55 19 -77 19 -35 0 -43 -4 -56
-31z"/>
</g>
</svg>
